<?xml version="1.0" encoding="UTF-8"?>
<svg width="15px" height="20px" viewBox="0 0 15 20" version="1.1" xmlns="http://www.w3.org/2000/svg" xmlns:xlink="http://www.w3.org/1999/xlink">
    <!-- Generator: Sketch 46.2 (44496) - http://www.bohemiancoding.com/sketch -->
    <title>arrow</title>
    <desc>Created with Sketch.</desc>
    <defs></defs>
    <g id="work_version" stroke="none" stroke-width="1" fill="none" fill-rule="evenodd">
        <g id="List" transform="translate(-1855.000000, -2086.000000)" fill-rule="nonzero" fill="#FFFFFF">
            <g id="top" transform="translate(1837.000000, 2070.000000)">
                <path d="M22.3905342,32.6100984 C22.6493783,32.883416 23.0801817,32.883416 23.3480763,32.6100984 C23.6069204,32.3460146 23.6069204,31.9064905 23.3480763,31.6430222 L18.4927889,26.6894496 L34.5145736,26.6894496 C34.8880573,26.6888341 35.1849134,26.3859687 35.1849134,26.0049246 C35.1849134,25.6238806 34.8880573,25.3111659 34.5145736,25.3111659 L18.4927889,25.3111659 L23.3480763,20.3668271 C23.6069204,20.0935095 23.6069204,19.6533698 23.3480763,19.3899016 C23.0801817,19.116584 22.6487749,19.116584 22.3905342,19.3899016 L16.3858343,25.5161541 C16.1179398,25.7802379 16.1179398,26.2197621 16.3858343,26.4832303 L22.3905342,32.6100984 Z" id="arrow" transform="translate(25.684913, 26.000000) rotate(90.000000) translate(-25.684913, -26.000000) "></path>
            </g>
        </g>
    </g>
</svg>