<?xml version="1.0" encoding="UTF-8"?>
<svg width="24px" height="16px" viewBox="0 0 24 16" version="1.1" xmlns="http://www.w3.org/2000/svg" xmlns:xlink="http://www.w3.org/1999/xlink">
    <!-- Generator: Sketch 46.2 (44496) - http://www.bohemiancoding.com/sketch -->
    <title>Behance_white</title>
    <desc>Created with Sketch.</desc>
    <defs>
        <rect id="path-1" x="0" y="0" width="26" height="26"></rect>
    </defs>
    <g id="work_version" stroke="none" stroke-width="1" fill="none" fill-rule="evenodd">
        <g id="List" transform="translate(-910.000000, -1067.000000)">
            <g id="social" transform="translate(780.000000, 941.000000)">
                <g id="social_white" transform="translate(87.000000, 121.000000)">
                    <g id="Behance_white" transform="translate(42.000000, 0.000000)">
                        <mask id="mask-2" fill="white">
                            <use xlink:href="#path-1"></use>
                        </mask>
                        <g id="Mask"></g>
                        <path d="M19.778842,8.80607657 C14.0700374,8.80607657 14.0626385,14.5190846 14.0626385,14.5484601 C14.0626385,14.5484601 13.6715521,20.2685465 19.778842,20.2685465 C19.778842,20.2685465 24.872126,20.5594704 24.872126,16.2876325 L22.2567796,16.2876325 C22.2567796,16.2876325 22.3434529,17.8958538 19.8658676,17.8958538 C19.8658676,17.8958538 17.2505212,18.0706913 17.2505212,15.2977128 L24.9591515,15.2977128 C24.9591515,15.2977128 25.8068577,8.80607657 19.778842,8.80607657 Z M17.2212778,13.2962843 C17.2212778,13.2962843 17.5401366,10.9964995 19.8369765,10.9964995 C22.140863,10.9964995 22.104573,13.2962843 22.104573,13.2962843 L17.2212778,13.2962843 Z M10.6869638,11.8264464 C10.6869638,11.8264464 12.9545603,11.6590413 12.9545603,8.98091401 C12.9545603,6.31021903 11.0998947,5 8.74527261,5 L1,5 L1,19.9553256 L8.74456795,19.9553256 C8.74456795,19.9553256 13.4756565,20.1011414 13.4756565,15.5380258 C13.4760089,15.5380258 13.678951,11.8264464 10.6869638,11.8264464 Z M4.41266936,7.65618418 L8.74492028,7.65618418 C8.74492028,7.65618418 9.79556864,7.65618418 9.79556864,9.21344072 C9.79556864,10.7706973 9.17969562,10.9964995 8.47679707,10.9964995 L4.41266936,10.9964995 L4.41266936,7.65618418 Z M8.52788494,17.2991414 L4.41266936,17.2991414 L4.41266936,13.2962843 L8.74492028,13.2962843 C8.74492028,13.2962843 10.3173695,13.2817735 10.3099706,15.355756 C10.3099706,17.1027147 9.14375795,17.2846306 8.52788494,17.2991414 Z M16.5765138,5.88055779 L16.5765138,7.72201366 L22.7204461,7.72201366 L22.7204461,5.88055779 L16.5765138,5.88055779 Z" id="Shape" fill="#FFFFFF" fill-rule="nonzero" mask="url(#mask-2)"></path>
                    </g>
                </g>
            </g>
        </g>
    </g>
</svg>