<?xml version="1.0" encoding="UTF-8"?>
<svg width="22px" height="22px" viewBox="0 0 22 22" version="1.1" xmlns="http://www.w3.org/2000/svg" xmlns:xlink="http://www.w3.org/1999/xlink">
    <!-- Generator: Sketch 46.2 (44496) - http://www.bohemiancoding.com/sketch -->
    <title>Dribbble_white</title>
    <desc>Created with Sketch.</desc>
    <defs>
        <rect id="path-1" x="0" y="0" width="26" height="26"></rect>
    </defs>
    <g id="work_version" stroke="none" stroke-width="1" fill="none" fill-rule="evenodd">
        <g id="List" transform="translate(-869.000000, -1064.000000)">
            <g id="social" transform="translate(780.000000, 941.000000)">
                <g id="social_white" transform="translate(87.000000, 121.000000)">
                    <g id="Dribbble_white">
                        <mask id="mask-2" fill="white">
                            <use xlink:href="#path-1"></use>
                        </mask>
                        <g id="Mask" opacity="0"></g>
                        <path d="M12.9996916,2 C6.9344584,2 2,6.93489397 2,13.0001544 C2,19.0654148 6.9344584,24 12.9996916,24 C19.0652332,24 24,19.0657235 24,13.0001544 C24,6.93489397 19.0652332,2 12.9996916,2 L12.9996916,2 Z M20.2379457,7.1917814 C21.4926833,8.74885268 22.2552702,10.7153383 22.2904239,12.8581253 C21.8728975,12.7722903 20.104732,12.442227 17.9918143,12.442227 C17.3100191,12.442227 16.5924535,12.4764992 15.8730377,12.5654218 C15.8122898,12.4175263 15.7515418,12.2702483 15.6877102,12.1214265 C15.5011494,11.6820625 15.3000953,11.2460949 15.0919489,10.8166112 C18.3439673,9.47505368 19.9126205,7.61323734 20.2379457,7.1917814 L20.2379457,7.1917814 Z M12.9996916,3.72194855 C15.3435748,3.72194855 17.4860955,4.59388377 19.1225891,6.02992155 C18.8635625,6.38375928 17.458651,8.14214138 14.3228863,9.32839319 C12.8714118,6.67183136 11.2827147,4.47192399 10.9046591,3.96123672 C11.5784369,3.8050047 12.2796591,3.72194855 12.9996916,3.72194855 L12.9996916,3.72194855 Z M9.00790536,4.62352462 C9.3282967,5.06535865 10.9194606,7.2887317 12.4082474,9.92398917 C8.41276071,10.9756221 4.86471182,11.0441666 4.00838192,11.0441666 L3.91741422,11.0441666 C4.5326026,8.20543696 6.44816663,5.84651874 9.00790536,4.62352462 L9.00790536,4.62352462 Z M3.70649249,13.014666 C3.70649249,12.9380938 3.70772595,12.8615216 3.71019287,12.7852582 C3.76569859,12.7858757 3.8477237,12.7858757 3.95410967,12.7858757 C5.10739516,12.7858757 9.11059094,12.6904692 13.2358993,11.4646962 C13.4862918,11.9550054 13.724658,12.4527248 13.9463725,12.9501354 C13.8421451,12.980085 13.7394595,13.0100347 13.6373907,13.0433806 C8.9924871,14.5454928 6.43953241,18.5219991 6.04667526,19.1719366 C4.59119197,17.5299566 3.70649249,15.3742018 3.70649249,13.014666 L3.70649249,13.014666 Z M12.9996916,22.306766 C10.868272,22.306766 8.90121103,21.5839614 7.33163265,20.3720826 C7.59713501,19.8508975 9.52410854,16.3770508 14.6142913,14.6032307 C14.617375,14.6019957 14.620767,14.6007607 14.6244674,14.5998344 C15.9007905,17.9270206 16.4413546,20.7194364 16.5896782,21.5848877 C15.4851144,22.0498786 14.2720061,22.306766 12.9996916,22.306766 L12.9996916,22.306766 Z M18.263484,20.6687999 C18.1389045,19.952788 17.6381195,17.3357473 16.4823671,14.1437975 C17.1305506,14.0428333 17.7611572,14.0030034 18.3526015,14.0030034 C20.2949933,14.0030034 21.8143081,14.4287819 22.1673862,14.5368476 C21.7477013,17.0714496 20.2983853,19.2648731 18.263484,20.6687999 L18.263484,20.6687999 Z" id="Shape" fill="#FFFFFF" fill-rule="nonzero" mask="url(#mask-2)"></path>
                    </g>
                </g>
            </g>
        </g>
    </g>
</svg>