<?xml version="1.0" encoding="UTF-8"?>
<svg width="22px" height="22px" viewBox="0 0 22 22" version="1.1" xmlns="http://www.w3.org/2000/svg" xmlns:xlink="http://www.w3.org/1999/xlink">
    <!-- Generator: Sketch 46.2 (44496) - http://www.bohemiancoding.com/sketch -->
    <title>instagram_grey</title>
    <desc>Created with Sketch.</desc>
    <defs>
        <rect id="path-1" x="0" y="0" width="26" height="26"></rect>
    </defs>
    <g id="work_version" stroke="none" stroke-width="1" fill="none" fill-rule="evenodd">
        <g id="List" transform="translate(-1037.000000, -17.000000)">
            <g id="header">
                <g id="social_grey" transform="translate(859.000000, 15.000000)">
                    <g id="instagram_grey" transform="translate(176.000000, 0.000000)">
                        <mask id="mask-2" fill="white">
                            <use xlink:href="#path-1"></use>
                        </mask>
                        <g id="Mask"></g>
                        <path d="M17.9286652,2 L8.07107452,2 C4.72348606,2 2,4.72361619 2,8.07120465 L2,17.9287954 C2,21.2765139 4.72348606,24 8.07107452,24 L17.9286652,24 C21.2765139,24 24,21.2763838 24,17.9287954 L24,8.07120465 C24.0001301,4.72361619 21.2765139,2 17.9286652,2 Z M22.0481835,17.9287954 C22.0481835,20.2002106 20.2002106,22.0480534 17.9287954,22.0480534 L8.07107452,22.0480534 C5.79978943,22.0481835 3.95194662,20.2002106 3.95194662,17.9287954 L3.95194662,8.07120465 C3.95194662,5.79991956 5.79978943,3.95194662 8.07107452,3.95194662 L17.9286652,3.95194662 C20.2000804,3.95194662 22.0480534,5.79991956 22.0480534,8.07120465 L22.0480534,17.9287954 L22.0481835,17.9287954 Z" id="Shape" fill="#D7D7D7" fill-rule="nonzero" mask="url(#mask-2)"></path>
                        <path d="M13,7.23809524 C9.82283786,7.23809524 7.23809524,9.8228972 7.23809524,13.0001323 C7.23809524,16.1772351 9.82283786,18.7619048 13,18.7619048 C16.1771621,18.7619048 18.7619048,16.1772351 18.7619048,13.0001323 C18.7619048,9.8228972 16.1771621,7.23809524 13,7.23809524 Z M13,16.7777366 C10.9169424,16.7777366 9.22208558,15.0831054 9.22208558,13 C9.22208558,10.9167623 10.9168101,9.22199886 13,9.22199886 C15.0831899,9.22199886 16.7779144,10.9167623 16.7779144,13 C16.7779144,15.0831054 15.0830576,16.7777366 13,16.7777366 Z" id="Shape" fill="#D7D7D7" fill-rule="nonzero" mask="url(#mask-2)"></path>
                        <path d="M19.2857143,6.19047619 C18.8728571,6.19047619 18.4672857,6.35761905 18.1757143,6.65047619 C17.8827143,6.94190476 17.7142857,7.34761905 17.7142857,7.76190476 C17.7142857,8.17490476 17.8828571,8.58047619 18.1757143,8.87333333 C18.4671429,9.1647619 18.8728571,9.33333333 19.2857143,9.33333333 C19.7,9.33333333 20.1042857,9.1647619 20.3971429,8.87333333 C20.69,8.58047619 20.8571429,8.1747619 20.8571429,7.76190476 C20.8571429,7.34761905 20.69,6.94190476 20.3971429,6.65047619 C20.1057143,6.35761905 19.7,6.19047619 19.2857143,6.19047619 Z" id="Shape" fill="#D7D7D7" fill-rule="nonzero" mask="url(#mask-2)"></path>
                    </g>
                </g>
            </g>
        </g>
    </g>
</svg>