<?xml version="1.0" encoding="UTF-8"?>
<svg width="178px" height="71px" viewBox="0 0 178 71" version="1.1" xmlns="http://www.w3.org/2000/svg" xmlns:xlink="http://www.w3.org/1999/xlink">
    <!-- Generator: Sketch 46.2 (44496) - http://www.bohemiancoding.com/sketch -->
    <title>logo_crtweb</title>
    <desc>Created with Sketch.</desc>
    <defs></defs>
    <g id="work_version" stroke="none" stroke-width="1" fill="none" fill-rule="evenodd">
        <g id="list_search_noresult" transform="translate(-871.000000, -107.000000)" fill-rule="nonzero" fill="#16161A">
            <g id="logo_crtweb" transform="translate(871.000000, 107.000000)">
                <g id="Group-2" transform="translate(0.000000, 43.000000)">
                    <path d="M5.93913043,7 C7.90626943,4.98743355 10.6120531,3.86866584 13.426087,3.90434783 C14.5152481,3.90562473 15.5966323,4.08781447 16.626087,4.44347826 C17.6564209,4.79416199 18.629255,5.29523015 19.5130435,5.93043478 C19.6201342,6.01143215 19.7369948,6.07862701 19.8608696,6.13043478 C19.9501028,6.16771957 20.0435441,6.19399993 20.1391304,6.20869565 C20.3901617,6.18110463 20.6114146,6.03143354 20.7304348,5.80869565 L21.4608696,4.65217391 C21.5240954,4.56145328 21.579373,4.46544482 21.626087,4.36521739 C21.6739462,4.27064771 21.7006511,4.16679534 21.7043478,4.06086957 C21.7058197,3.9378935 21.6589861,3.81924838 21.573913,3.73043478 C21.4752746,3.62817149 21.3675896,3.53503854 21.2521739,3.45217391 C20.1134648,2.62159033 18.8557905,1.96783419 17.5217391,1.51304348 C15.0130763,0.67979031 12.3134885,0.610182105 9.76521739,1.31304348 C8.65816173,1.62491672 7.59473951,2.07482612 6.6,2.65217391 C5.61401802,3.22690036 4.70772845,3.9285439 3.90434783,4.73913043 C3.09793915,5.54940676 2.39677153,6.45800313 1.8173913,7.44347826 C-1.21765058,12.6523004 -0.368238629,19.2513034 3.88695652,23.5217391 C5.50886949,25.1703813 7.53155559,26.3690101 9.75652174,27 C10.9122876,27.3170654 12.1058925,27.4750426 13.3043478,27.4695652 C14.764591,27.4826572 16.2166661,27.2504428 17.6,26.7826087 C18.9046197,26.3352365 20.1354693,25.696367 21.2521739,24.8869565 C21.4882256,24.7832997 21.6437971,24.5533244 21.6521739,24.2956522 C21.6529005,24.1257134 21.6110471,23.9582997 21.5304348,23.8086957 L20.7304348,22.4782609 C20.6257403,22.2376413 20.400021,22.0716712 20.1391304,22.0434783 C20.0464122,22.0508958 19.956886,22.0807379 19.8782609,22.1304348 C19.7652375,22.1939579 19.6576286,22.2666666 19.5565217,22.3478261 L19.2086957,22.6086957 C19.1025999,22.6864976 18.9889914,22.7534975 18.8695652,22.8086957 C18.3946263,23.1019089 17.9007923,23.3633504 17.3913043,23.5913043 C16.9453352,23.7904678 16.4862984,23.9589749 16.0173913,24.0956522 C15.5855765,24.229952 15.1435332,24.3288301 14.6956522,24.3913043 C14.2512417,24.4441438 13.8040618,24.4702777 13.3565217,24.4695652 C12.0185311,24.4735695 10.6935061,24.2073814 9.46086957,23.6869565 C8.23424139,23.1772011 7.11358611,22.442877 6.15652174,21.5217391 C5.19355096,20.5902952 4.41732764,19.4835129 3.86956522,18.2608696 C3.28989685,16.9920567 2.99318153,15.6123304 3,14.2173913 C3.00268925,11.5206917 4.05712817,8.93138902 5.93913043,7 Z" id="Shape"></path>
                    <path d="M44.9478261,13.8695652 C45.3685799,13.2167293 45.6963659,12.5084774 45.9217391,11.7652174 C46.4713827,9.93263934 46.3699947,7.96632769 45.6347826,6.2 C45.2246652,5.22859841 44.6345931,4.34349024 43.8956522,3.59130435 C43.146594,2.84852269 42.2607004,2.257927 41.2869565,1.85217391 C40.2702457,1.41841626 39.1748973,1.19934658 38.0695652,1.20869565 L27.9565217,1.20869565 C27.7486876,1.19961233 27.5466481,1.27853404 27.4,1.42608696 C27.2530301,1.59704853 27.1782042,1.81840853 27.1913043,2.04347826 L27.1913043,26.3913043 C27.1620217,26.6018775 27.2331673,26.8139977 27.3834978,26.9643283 C27.5338283,27.1146588 27.7459486,27.1858044 27.9565217,27.1565217 L29.4434783,27.1565217 C29.6540514,27.1858044 29.8661717,27.1146588 30.0165022,26.9643283 C30.1668327,26.8139977 30.2379783,26.6018775 30.2086957,26.3913043 L30.2086957,17.6956522 L38.2608696,17.6956522 C38.3940595,17.7043985 38.5276797,17.7043985 38.6608696,17.6956522 L42.8869565,26.5826087 C42.963178,26.7676935 43.0789208,26.9338883 43.226087,27.0695652 C43.3816201,27.1919446 43.5762719,27.2537388 43.773913,27.2434783 L45.5130435,27.2434783 C45.6769604,27.2530355 45.8393167,27.2070856 45.973913,27.1130435 C46.0770956,27.038241 46.1384574,26.9187469 46.1391304,26.7913043 C46.128909,26.6826309 46.0994662,26.5766368 46.0521739,26.4782609 L41.5130435,16.8521739 C42.21597,16.529653 42.8689974,16.1079672 43.4521739,15.6 C44.0292794,15.0960546 44.5327474,14.5135538 44.9478261,13.8695652 L44.9478261,13.8695652 Z M42.8869565,11.3478261 C42.6313203,11.9669447 42.26273,12.5330994 41.8,13.0173913 C41.3259551,13.510125 40.7583508,13.9033092 40.1304348,14.173913 C39.486589,14.4564044 38.79001,14.5986844 38.0869565,14.5913043 L30.2347826,14.5913043 L30.2347826,4.15652174 L38.0608696,4.15652174 C38.7719397,4.14401996 39.4774959,4.28335248 40.1304348,4.56521739 C40.7542384,4.83862272 41.3184753,5.23152066 41.7913043,5.72173913 C42.2591475,6.20546165 42.6335524,6.77149118 42.8956522,7.39130435 C43.1628766,8.02100694 43.2989789,8.69855959 43.2956522,9.3826087 C43.2912979,10.0583239 43.1523617,10.7264002 42.8869565,11.3478261 L42.8869565,11.3478261 Z" id="Shape"></path>
                    <path d="M69.2347826,24.0434783 L54.573913,24.0434783 L54.573913,14.9478261 L66.1130435,14.9478261 C66.3322811,14.9631426 66.5456128,14.8726382 66.6869565,14.7043478 C66.813466,14.5467119 66.8811101,14.3499291 66.8782609,14.1478261 L66.8782609,12.7130435 C66.898232,12.4864748 66.8152062,12.2629438 66.6521739,12.1043478 C66.5013734,11.9777218 66.3099301,11.9097903 66.1130435,11.9130435 L54.573913,11.9130435 L54.573913,4.19130435 L69.0782609,4.19130435 C69.3076134,4.20683977 69.5315877,4.11725004 69.6869565,3.94782609 C69.8197293,3.79258976 69.8936133,3.59556588 69.8956522,3.39130435 L69.8956522,1.97391304 C69.8956522,1.42898551 69.6347826,1.15652174 69.1130435,1.15652174 L52.3217391,1.15652174 C51.8115942,1.15652174 51.5565217,1.42318841 51.5565217,1.95652174 L51.5565217,26.3478261 C51.5565217,26.8347826 51.8115942,27.0782609 52.3217391,27.0782609 L69.2521739,27.0782609 C69.4627471,27.1075435 69.6748673,27.0363979 69.8251978,26.8860674 C69.9755284,26.7357369 70.0466739,26.5236166 70.0173913,26.3130435 L70.0173913,24.8608696 C70.0231884,24.315942 69.7623188,24.0434783 69.2347826,24.0434783 Z" id="Shape"></path>
                    <path d="M97.173913,26.0869565 L87.1130435,1.7826087 C87.0432695,1.63533385 86.9587818,1.49549207 86.8608696,1.36521739 C86.7087545,1.19791455 86.4855657,1.11381443 86.2608696,1.13913043 L85.226087,1.13913043 C84.9906043,1.10949106 84.7550329,1.19339322 84.5913043,1.36521739 C84.4941706,1.49285551 84.4151608,1.63331729 84.3565217,1.7826087 C84.3565217,1.85217391 84.2782609,1.9826087 84.2,2.17391304 L83.8173913,3.04347826 C83.6434783,3.44927536 83.4,4.02898551 83.0869565,4.7826087 L81.8782609,7.66956522 L80.0782609,12.0173913 L77.573913,18.0434783 L74.2521739,26.0521739 C74.2281384,26.0895724 74.2105054,26.130716 74.2,26.173913 C74.1891303,26.2837898 74.1891303,26.3944711 74.2,26.5043478 C74.2,26.8753623 74.4492754,27.0608696 74.9478261,27.0608696 L76.4521739,27.0608696 C76.8904971,27.068322 77.2807346,26.7845129 77.4086957,26.3652174 L79.3826087,21.3913043 L92.0782609,21.3913043 L94.1043478,26.4 C94.1789624,26.5880547 94.3019566,26.7530469 94.4608696,26.8782609 C94.6286878,27.0035502 94.8341695,27.0679549 95.0434783,27.0608696 L96.5478261,27.0608696 C96.7456149,27.0690452 96.941649,27.0207906 97.1130435,26.9217391 C97.2564352,26.8328799 97.3398211,26.6727789 97.3304348,26.5043478 C97.3258243,26.4144628 97.3052113,26.3261217 97.2695652,26.2434783 C97.2334937,26.1939817 97.2015044,26.1416355 97.173913,26.0869565 L97.173913,26.0869565 Z M80.6086957,18.4347826 L85.7391304,5.66086957 L90.8173913,18.4434783 L80.6086957,18.4347826 Z" id="Shape"></path>
                    <path d="M114.834783,1.14782609 L96.8695652,1.14782609 C96.6608579,1.13917231 96.457352,1.21431294 96.3043478,1.35652174 C96.1567949,1.50316981 96.0778732,1.70520937 96.0869565,1.91304348 L96.0869565,3.34782609 C96.0715794,3.57998255 96.1498794,3.80861852 96.3043478,3.9826087 C96.4601683,4.11923369 96.662493,4.19082549 96.8695652,4.1826087 L104.356522,4.1826087 L104.356522,26.2956522 C104.34832,26.5075946 104.430502,26.7130507 104.582609,26.8608696 C104.736879,27.0075876 104.943763,27.0859525 105.156522,27.0782609 L106.573913,27.0782609 C106.797539,27.0955695 107.017317,27.0127546 107.173913,26.8521739 C107.307701,26.6981295 107.37904,26.4996192 107.373913,26.2956522 L107.373913,4.19130435 L114.826087,4.19130435 C115.05762,4.20453667 115.283303,4.11553492 115.443478,3.94782609 C115.587305,3.78482617 115.664863,3.57386719 115.66087,3.35652174 L115.66087,1.92173913 C115.652735,1.69986963 115.551767,1.49162312 115.382609,1.34782609 C115.228466,1.22008615 115.034969,1.14944431 114.834783,1.14782609 Z" id="Shape"></path>
                    <path d="M123.591304,1.14782609 L122.13913,1.14782609 C121.92886,1.12655928 121.71999,1.1996658 121.568878,1.34741948 C121.417766,1.49517315 121.339985,1.70234836 121.356522,1.91304348 L121.356522,26.3130435 C121.329705,26.5262495 121.4042,26.739721 121.557844,26.8899515 C121.711489,27.0401821 121.926581,27.1098616 122.13913,27.0782609 L123.591304,27.0782609 C123.800035,27.0902376 124.005419,27.0217761 124.165217,26.8869565 C124.313282,26.7340663 124.389186,26.5253294 124.373913,26.3130435 L124.373913,1.92173913 C124.382996,1.71390503 124.304075,1.51186547 124.156522,1.36521739 C124.004394,1.22067518 123.801082,1.14247834 123.591304,1.14782609 Z" id="Shape"></path>
                    <path d="M153.33913,1.14782609 L151.817391,1.14782609 C151.601235,1.13991362 151.389075,1.2075588 151.217391,1.33913043 C151.060102,1.46946092 150.937602,1.63677721 150.86087,1.82608696 C150.64058,2.4057971 150.373913,3.07246377 150.06087,3.82608696 C149.747826,4.57971014 149.411594,5.42028986 149.052174,6.34782609 C148.692754,7.25217391 148.307246,8.2057971 147.895652,9.20869565 L146.652174,12.2173913 L145.434783,15.2173913 C145.04058,16.2028986 144.663768,17.1333333 144.304348,18.0086957 L143.313043,20.4086957 C143.017391,21.1333333 142.771014,21.7449275 142.573913,22.2434783 L141.817391,20.4086957 L140.826087,18.0086957 L139.695652,15.2521739 L138.452174,12.2173913 L137.217391,9.2 L136.052174,6.33913043 L135.043478,3.82608696 L134.252174,1.83478261 C134.191954,1.62956031 134.070622,1.44756317 133.904348,1.31304348 C133.734998,1.18338791 133.526245,1.11585017 133.313043,1.12173913 L131.773913,1.12173913 C131.269565,1.12173913 131.026087,1.31304348 131.026087,1.67826087 C131.03474,1.85922427 131.069897,2.03793902 131.130435,2.20869565 C131.188406,2.36521739 131.234783,2.47826087 131.269565,2.54782609 L141.191304,26.3826087 C141.269459,26.5399129 141.372198,26.6837479 141.495652,26.8086957 C141.646653,26.9676911 141.85921,27.0533484 142.078261,27.0434783 L143.086957,27.0434783 C143.230237,27.0496028 143.373018,27.0228314 143.504348,26.9652174 C143.598707,26.9200146 143.684134,26.8581536 143.756522,26.7826087 C143.818124,26.7160672 143.868096,26.6396389 143.904348,26.5565217 L143.991304,26.3478261 L154.017391,2.13043478 C154.042701,2.07514034 154.060258,2.01661711 154.069565,1.95652174 C154.07742,1.87555235 154.07742,1.79401286 154.069565,1.71304348 C154.092754,1.33623188 153.849275,1.14782609 153.33913,1.14782609 Z" id="Shape"></path>
                    <path d="M177.13913,24.0434783 L162.469565,24.0434783 L162.469565,14.9478261 L174.008696,14.9478261 C174.227933,14.9631426 174.441265,14.8726382 174.582609,14.7043478 C174.709118,14.5467119 174.776762,14.3499291 174.773913,14.1478261 L174.773913,12.7130435 C174.793884,12.4864748 174.710858,12.2629438 174.547826,12.1043478 C174.397426,11.9770237 174.205711,11.908996 174.008696,11.9130435 L162.469565,11.9130435 L162.469565,4.19130435 L176.982609,4.19130435 C177.211961,4.20683977 177.435936,4.11725004 177.591304,3.94782609 C177.724077,3.79258976 177.797961,3.59556588 177.8,3.39130435 L177.8,1.97391304 C177.8,1.42898551 177.53913,1.15652174 177.017391,1.15652174 L160.217391,1.15652174 C159.707246,1.15652174 159.452174,1.42318841 159.452174,1.95652174 L159.452174,26.3478261 C159.452174,26.8347826 159.707246,27.0782609 160.217391,27.0782609 L177.156522,27.0782609 C177.367095,27.1075435 177.579215,27.0363979 177.729546,26.8860674 C177.879876,26.7357369 177.951022,26.5236166 177.921739,26.3130435 L177.921739,24.8608696 C177.921739,24.315942 177.66087,24.0434783 177.13913,24.0434783 Z" id="Shape"></path>
                </g>
                <path d="M96.5087227,17.6052976 C95.0795884,17.6030703 93.7098178,18.1766813 92.7087227,19.196602 L87.3782879,15.8574715 C87.7617213,14.8360507 87.7923321,13.7156969 87.4652444,12.6748628 L92.926114,9.25747154 C94.7859076,10.9506263 97.5771193,11.1106209 99.618202,9.64106765 C101.659285,8.17151437 102.392902,5.47368804 101.377091,3.17287652 C100.36128,0.872065005 97.8734177,-0.403474273 95.4122997,0.114699001 C92.9511817,0.632872274 91.1888391,2.80326619 91.1869835,5.31834111 C91.1933765,5.79226113 91.2635728,6.26316098 91.3956792,6.71834111 L85.900027,10.196602 C83.7884306,8.30653258 80.568049,8.39550592 78.5640324,10.3992823 C76.5600159,12.4030587 76.4706566,15.6234296 78.360473,17.7352525 C80.2502893,19.8470755 83.4607817,20.1144936 85.6739401,18.3444281 L91.3087227,21.8748628 C90.8332761,24.0873335 91.8042528,26.3592076 93.7319177,27.5446121 C95.6595827,28.7300165 98.125157,28.571426 99.8850703,27.1488294 C101.644984,25.7262328 102.3169,23.3486847 101.561924,21.2153572 C100.806947,19.0820297 98.7890931,17.6563814 96.526114,17.6574715 L96.5087227,17.6052976 Z M96.5087227,2.95312372 C97.8101937,2.95312372 98.8652444,4.00817444 98.8652444,5.30964545 C98.8652444,6.61111647 97.8101937,7.66616719 96.5087227,7.66616719 C95.2072517,7.66616719 94.1522009,6.61111647 94.1522009,5.30964545 C94.1617227,4.01355199 95.2126029,2.96654957 96.5087227,2.96181937 L96.5087227,2.95312372 Z M82.3522009,16.5009498 C81.0507299,16.5009498 79.9956792,15.4458991 79.9956792,14.1444281 C79.9956792,12.842957 81.0507299,11.7879063 82.3522009,11.7879063 C83.653672,11.7879063 84.7087227,12.842957 84.7087227,14.1444281 C84.7039539,15.4439186 83.6516915,16.496181 82.3522009,16.5009498 L82.3522009,16.5009498 Z M96.500027,25.3183411 C95.7142523,25.3224734 94.9785075,24.9332355 94.5398128,24.2813107 C94.1011181,23.6293859 94.0176448,22.8012201 94.3174183,22.0748628 L94.3695922,22.0139933 C94.4311738,21.9159133 94.4808018,21.8108189 94.5174183,21.7009498 C95.1233748,20.7441998 96.3242153,20.3537915 97.3769536,20.7712791 C98.429692,21.1887666 99.03658,22.2960712 98.822123,23.4080793 C98.6076659,24.5200874 97.6325191,25.3222876 96.500027,25.3183411 L96.500027,25.3183411 Z" id="Shape"></path>
            </g>
        </g>
    </g>
</svg>