<?xml version="1.0" encoding="UTF-8"?>
<svg width="22px" height="18px" viewBox="0 0 22 18" version="1.1" xmlns="http://www.w3.org/2000/svg" xmlns:xlink="http://www.w3.org/1999/xlink">
    <!-- Generator: Sketch 46.2 (44496) - http://www.bohemiancoding.com/sketch -->
    <title>twitter_white</title>
    <desc>Created with Sketch.</desc>
    <defs>
        <rect id="path-1" x="0" y="0" width="26" height="26"></rect>
    </defs>
    <g id="work_version" stroke="none" stroke-width="1" fill="none" fill-rule="evenodd">
        <g id="List" transform="translate(-953.000000, -1066.000000)">
            <g id="social" transform="translate(780.000000, 941.000000)">
                <g id="social_white" transform="translate(87.000000, 121.000000)">
                    <g id="twitter_white" transform="translate(84.000000, 0.000000)">
                        <mask id="mask-2" fill="white">
                            <use xlink:href="#path-1"></use>
                        </mask>
                        <g id="Mask"></g>
                        <path d="M24,6.08356961 C23.1907953,6.43679563 22.320328,6.67570366 21.4074482,6.78240045 C22.3395147,6.23268003 23.0548058,5.36286925 23.3924233,4.32472936 C22.520273,4.83402429 21.5538725,5.20348677 20.5262095,5.40263202 C19.7028673,4.53944837 18.5297898,4 17.230821,4 C14.7385783,4 12.7172496,5.98979573 12.7172496,8.44315918 C12.7172496,8.79141485 12.7573059,9.13039254 12.8347257,9.45578462 C9.08357049,9.27055634 5.75755072,7.50177539 3.53122801,4.81281747 C3.14278283,5.46890332 2.91994859,6.23268003 2.91994859,7.04682293 C2.91994859,8.58796197 3.71737201,9.94851172 4.92781297,10.7450927 C4.18828606,10.7222291 3.49184492,10.5224212 2.88359497,10.1887452 C2.88325836,10.2076325 2.88325836,10.2265198 2.88325836,10.2450758 C2.88325836,12.3978989 4.43973194,14.1935197 6.50414639,14.6014196 C6.12579944,14.7034774 5.72624621,14.7574885 5.31524832,14.7574885 C5.02374614,14.7574885 4.74133235,14.7299859 4.46598733,14.6782943 C5.04023991,16.4430989 6.70678417,17.7277681 8.68233422,17.7638859 C7.1373053,18.9557752 5.19137673,19.6658722 3.07613452,19.6658722 C2.7125983,19.6658722 2.35242816,19.6449967 2,19.6035771 C3.99641972,20.8647199 6.36950335,21.6 8.91829615,21.6 C17.2203862,21.6 21.7605496,14.8297242 21.7605496,8.95775581 C21.7605496,8.76523769 21.7561737,8.57338228 21.7474219,8.38318366 C22.630007,7.75691989 23.3951161,6.97458722 24,6.08356961 L24,6.08356961 Z" id="Shape" fill="#FFFFFF" fill-rule="nonzero" mask="url(#mask-2)"></path>
                    </g>
                </g>
            </g>
        </g>
    </g>
</svg>